<?xml version="1.0" standalone="no"?>
<!DOCTYPE svg PUBLIC "-//W3C//DTD SVG 20010904//EN"
 "http://www.w3.org/TR/2001/REC-SVG-20010904/DTD/svg10.dtd">
<svg version="1.0" xmlns="http://www.w3.org/2000/svg"
 width="1000.000000pt" height="1080.000000pt" viewBox="0 0 1000.000000 1080.000000"
 preserveAspectRatio="xMidYMid meet">
<metadata>
Created by potrace 1.16, written by Peter Selinger 2001-2019
</metadata>
<g transform="translate(0.000000,1080.000000) scale(0.100000,-0.100000)"
fill="#000000" stroke="none">
<path d="M5142 8347 c-54 -20 -95 -61 -136 -135 -22 -40 -57 -88 -78 -107 -46
-43 -48 -60 -8 -83 29 -16 30 -19 30 -90 0 -78 17 -131 53 -170 18 -19 61
-141 53 -149 -2 -2 -916 -353 -1241 -477 -70 -27 -85 -24 -188 37 -147 86
-267 43 -267 -96 0 -40 5 -54 28 -77 70 -69 225 -66 357 9 31 17 212 90 403
161 191 71 407 151 481 179 73 28 135 51 137 51 2 0 -6 -16 -18 -36 -25 -42
-27 -127 -5 -170 22 -43 68 -519 76 -794 5 -139 12 -243 19 -256 8 -16 5 -47
-13 -140 -30 -148 -31 -228 -5 -595 11 -156 26 -394 35 -529 l15 -244 96 -288
c52 -158 100 -288 105 -288 4 0 3 -12 -3 -27 -7 -16 -15 -77 -19 -138 -4 -60
-11 -135 -15 -166 -6 -53 -5 -58 26 -93 39 -44 97 -76 140 -76 41 0 106 60
121 111 10 32 9 50 -6 104 -13 50 -16 83 -10 138 4 50 2 82 -6 100 -10 22 -10
32 0 50 10 19 8 78 -13 318 -14 162 -29 326 -32 364 -3 39 -1 107 5 152 6 45
13 147 17 227 4 81 8 145 10 143 2 -1 12 -99 24 -217 30 -320 31 -327 46 -388
8 -31 26 -194 39 -362 27 -330 63 -620 76 -620 17 0 9 -22 -18 -49 -16 -15
-48 -51 -72 -80 -34 -41 -60 -60 -119 -87 -84 -38 -101 -55 -102 -100 0 -42
51 -88 122 -109 83 -24 124 -20 217 25 75 36 90 40 162 40 122 0 199 43 199
112 0 49 -51 177 -86 214 -27 30 -29 35 -15 48 23 24 20 843 -4 1006 -19 126
-17 376 6 814 13 239 6 371 -30 536 -14 61 -16 92 -9 110 11 27 12 51 29 540
l12 325 201 1 c275 1 492 33 591 87 73 40 77 57 72 332 -4 227 -25 422 -47
450 -4 6 -11 30 -15 55 -4 25 -12 62 -18 83 -9 34 -8 39 11 53 26 18 29 65 6
88 -18 19 -33 20 -69 6 -19 -7 -32 -6 -49 5 -13 9 -46 18 -74 22 -58 7 -88 -7
-135 -63 -16 -19 -36 -34 -45 -34 -9 0 -26 -7 -36 -15 -11 -8 -28 -15 -39 -15
-10 0 -36 -18 -57 -39 -22 -22 -53 -42 -69 -46 -17 -4 -37 -15 -44 -25 -12
-17 -87 -50 -315 -136 l-63 -24 8 23 c4 12 7 38 6 57 -1 19 4 60 12 91 37 143
0 243 -97 264 -17 4 -51 23 -77 43 -70 53 -118 72 -186 71 -33 0 -75 -6 -93
-12z m147 -67 c24 -11 64 -38 87 -60 38 -35 48 -39 88 -38 81 4 105 -46 91
-188 -6 -64 -9 -74 -26 -74 -16 0 -18 6 -13 48 3 26 8 53 10 60 4 14 -82 104
-116 122 -10 6 -45 10 -78 10 -62 0 -90 -11 -206 -83 -67 -41 -101 -45 -160
-19 l-39 18 27 17 c14 10 51 52 82 93 31 41 70 84 87 95 41 25 109 24 166 -1z
m106 -166 c31 -8 78 -92 70 -123 -4 -14 -10 -94 -15 -177 -8 -169 -13 -181
-84 -228 -50 -33 -98 -42 -144 -28 -45 14 -107 64 -127 101 -7 15 -23 94 -34
176 -22 156 -21 164 21 165 9 0 52 24 95 53 43 30 85 56 93 60 20 7 100 8 125
1z m900 -66 c24 -22 4 -167 -29 -211 -13 -17 -16 -17 -51 8 -21 14 -43 25 -48
25 -6 0 4 11 23 25 46 34 22 31 -52 -6 -67 -34 -87 -33 -133 6 l-30 26 64 -6
c63 -6 64 -6 56 17 -22 71 -14 108 24 108 9 0 27 7 41 14 27 16 117 12 135 -6z
m213 -40 c6 -24 13 -62 17 -85 l7 -42 -47 -7 c-57 -8 -66 0 -68 60 -2 34 -7
48 -19 52 -28 8 -22 18 25 41 62 32 73 30 85 -19z m-110 -224 c2 -93 -2 -222
-9 -286 l-12 -116 -91 -7 c-153 -11 -340 -11 -358 0 -15 9 5 34 150 181 190
193 246 268 264 354 10 53 14 57 32 50 20 -7 21 -16 24 -176z m-393 74 c14 -6
25 -14 25 -17 0 -3 -21 -17 -47 -31 -89 -47 -278 -177 -331 -228 -47 -46 -58
-52 -110 -58 l-58 -6 -2 43 c-1 24 3 62 9 84 l10 40 237 92 c130 50 238 92
239 92 1 1 14 -4 28 -11z m560 -123 c9 -60 19 -195 22 -300 6 -216 -2 -257
-52 -286 -74 -43 -416 -89 -666 -89 l-107 0 -6 35 c-9 48 -24 44 -30 -7 -7
-61 -26 -415 -35 -673 -6 -159 -13 -230 -24 -256 -14 -33 -19 -36 -68 -42 -87
-11 -411 -8 -559 4 -133 12 -137 12 -147 38 -6 14 -14 109 -17 210 -7 226 -70
783 -97 869 -24 73 23 156 106 187 39 15 56 16 162 5 91 -10 139 -10 203 -1
80 10 419 81 430 88 2 2 -2 8 -9 12 -20 13 424 311 463 311 20 0 54 -16 78
-37 16 -14 3 -31 -165 -205 -100 -104 -202 -202 -225 -218 -51 -34 -366 -141
-497 -169 -49 -11 -119 -23 -155 -27 -72 -7 -92 -17 -83 -41 5 -13 18 -15 79
-9 40 3 115 15 166 26 114 25 446 134 494 162 30 17 43 19 87 12 71 -11 478
-6 493 7 31 26 43 320 18 461 l-6 37 63 3 c35 2 65 3 66 3 0 0 9 -49 18 -110z
m-1495 -174 c-8 -5 -177 -71 -375 -146 -198 -75 -481 -183 -630 -240 -362
-138 -431 -159 -526 -159 -62 -1 -81 3 -98 18 -45 41 -10 126 51 126 16 0 64
-18 108 -40 44 -22 94 -40 111 -40 17 0 113 30 213 66 219 79 977 364 1061
398 59 24 118 36 85 17z m-34 -1487 c145 -21 381 -21 512 0 57 9 108 14 113
11 5 -4 9 -16 9 -27 0 -12 10 -71 21 -132 24 -122 24 -109 -1 -721 -8 -195 -9
-331 -3 -387 7 -71 6 -85 -4 -76 -19 15 -17 -2 7 -64 18 -46 22 -89 30 -343 5
-159 12 -362 16 -451 l7 -161 -49 -7 c-107 -15 -155 -18 -189 -12 l-35 7 0
142 c0 220 -36 694 -60 795 -12 48 -28 159 -36 247 -8 88 -26 261 -40 385 -15
124 -29 273 -33 332 -7 112 -11 124 -34 115 -11 -4 -15 -44 -20 -174 -4 -92
-14 -282 -23 -422 -18 -273 -15 -361 23 -823 10 -114 14 -211 9 -215 -4 -4
-45 -10 -91 -11 l-84 -4 -11 44 c-39 149 -67 251 -105 388 -41 149 -44 163
-55 375 -6 121 -20 353 -31 515 -11 162 -20 327 -21 367 -1 86 41 323 57 323
6 0 61 -7 121 -16z m94 -2189 c23 -27 30 -16 28 42 -2 45 0 58 12 60 26 6 49
-20 53 -59 7 -73 37 -57 37 20 0 41 12 56 24 27 3 -8 3 -44 -1 -79 -4 -48 -2
-75 11 -106 15 -39 15 -43 -5 -91 -38 -88 -93 -110 -160 -65 -53 36 -65 72
-45 139 9 30 17 95 17 144 1 82 2 84 9 35 4 -29 13 -59 20 -67z m622 -282 c28
-33 72 -164 61 -182 -23 -37 -73 -54 -162 -55 -77 -1 -94 -5 -164 -39 -86 -41
-125 -45 -204 -22 -60 18 -92 48 -77 73 5 9 39 31 74 49 56 27 67 29 81 17 25
-23 45 -18 24 6 -18 20 -17 22 20 75 21 31 45 59 53 64 25 14 52 1 52 -25 0
-16 9 -28 30 -39 62 -32 115 -13 150 56 22 43 39 48 62 22z"/>
<path d="M0 400 l0 -400 5000 0 5000 0 0 400 0 400 -5000 0 -5000 0 0 -400z
m1395 106 c25 -11 33 -19 29 -30 -7 -19 -5 -19 -40 -1 -36 18 -55 19 -78 2
-28 -21 -9 -45 49 -62 87 -25 108 -74 54 -127 -29 -29 -33 -30 -90 -25 -68 6
-72 8 -64 29 5 13 12 14 40 5 50 -15 100 1 100 33 0 16 -8 28 -25 36 -87 40
-105 51 -108 67 -14 70 53 106 133 73z m587 -48 l3 -62 36 32 c20 18 45 32 55
32 14 0 9 -9 -21 -40 l-39 -40 42 -60 c40 -57 41 -60 20 -60 -16 0 -32 14 -53
45 -16 25 -33 45 -37 45 -5 0 -8 -20 -8 -45 0 -38 -3 -45 -20 -45 -19 0 -20 7
-20 130 0 122 1 130 20 130 16 0 19 -8 22 -62z m-1353 -24 c12 -15 21 -40 21
-55 0 -29 0 -29 -65 -29 -72 0 -83 -12 -44 -51 17 -17 30 -20 65 -16 43 4 59
-5 28 -17 -45 -17 -106 3 -123 41 -45 98 56 206 118 127z m456 3 c20 -16 28
-35 32 -69 5 -42 3 -50 -25 -78 -41 -41 -83 -41 -124 0 -28 28 -30 36 -25 78
9 82 84 119 142 69z m622 8 c30 -21 44 -75 32 -120 -25 -88 -143 -88 -168 0
-20 72 20 135 84 135 17 0 40 -7 52 -15z"/>
<path d="M986 424 c-50 -50 -21 -144 44 -144 48 0 80 50 66 104 -13 53 -75 75
-110 40z"/>
</g>
</svg>
