<?xml version="1.0" encoding="UTF-8" standalone="no"?>
<!DOCTYPE svg PUBLIC "-//W3C//DTD SVG 1.1//EN" "http://www.w3.org/Graphics/SVG/1.1/DTD/svg11.dtd">
<svg version="1.1" xmlns="http://www.w3.org/2000/svg" xmlns:xlink="http://www.w3.org/1999/xlink" preserveAspectRatio="xMidYMid meet" viewBox="0 0 640 640" width="800" height="800"><defs><path d="M89.13 295.97C89.13 136.51 192.49 7.24 320 7.24C447.51 7.24 550.87 136.49 550.87 295.97C550.87 455.45 447.52 584.73 320.01 584.73C289.04 584.73 259.49 577.09 232.5 563.28C226.81 568.4 198.33 593.97 147.06 640L160.34 504.52C112.87 420.15 89.13 350.63 89.13 295.97Z" id="c1ef2SF6o"></path><path d="M296.36 198.35C296.36 209.86 303.68 219.17 312.75 219.17C321.77 219.17 329.09 209.86 329.09 198.35C329.09 186.88 321.77 177.55 312.75 177.55C303.68 177.55 296.36 186.88 296.36 198.35Z" id="budyjdQoC"></path><path d="M397.99 211.68C390.53 204.2 353.26 166.76 286.17 99.39C279.94 113.14 276.48 120.79 275.79 122.32C273.85 126.83 274.7 132.84 277.66 135.78C280.61 138.76 284.55 137.55 286.49 133.03C286.89 132.15 288.92 127.73 292.57 119.79L383.38 211.06C338.74 223.3 313.94 230.1 308.98 231.46C303.71 232.81 299.9 240.83 301.08 248.69C302.16 255.05 307.55 286.83 317.27 344.04C285.85 415.82 268.39 455.71 264.9 463.68C261.77 471.85 263.66 482.32 269.08 487C274.55 491.74 281.47 488.85 284.63 480.68C284.63 480.68 339.24 355.57 339.45 354.78C339.45 354.78 342.26 372.15 342.26 372.23C341.44 381.62 334.89 456.71 334.07 466.1C333.04 475.44 337.2 484.17 343.39 485.74C349.58 487.31 355.45 481.05 356.49 471.76C357.33 462.11 364.11 384.87 364.96 375.21C365.22 372.74 364.89 367.33 364.52 364.94C363.27 357.41 357.05 319.72 345.84 251.89C375 243.89 391.19 239.45 394.43 238.56C399.63 237.16 403.15 229.53 402.23 221.59C401.51 215.41 398.19 211.91 397.99 211.68Z" id="fqulEY17q"></path></defs><g><g><g><use xlink:href="#c1ef2SF6o" opacity="1" fill="#15a0f3" fill-opacity="1"></use></g><g><use xlink:href="#budyjdQoC" opacity="1" fill="#ffffff" fill-opacity="1"></use><g><use xlink:href="#budyjdQoC" opacity="1" fill-opacity="0" stroke="#000000" stroke-width="1" stroke-opacity="0"></use></g></g><g><use xlink:href="#fqulEY17q" opacity="1" fill="#ffffff" fill-opacity="1"></use><g><use xlink:href="#fqulEY17q" opacity="1" fill-opacity="0" stroke="#000000" stroke-width="1" stroke-opacity="0"></use></g></g></g></g></svg>